<svg version="1.1" xmlns="http://www.w3.org/2000/svg" xmlns:xlink="http://www.w3.org/1999/xlink" width="11" height="14" viewBox="0 0 11 14">
<path fill="#008080" d="M11 5.75v1.5q0 0.312-0.219 0.531t-0.531 0.219h-3.25v3.25q0 0.312-0.219 0.531t-0.531 0.219h-1.5q-0.312 0-0.531-0.219t-0.219-0.531v-3.25h-3.25q-0.312 0-0.531-0.219t-0.219-0.531v-1.5q0-0.312 0.219-0.531t0.531-0.219h3.25v-3.25q0-0.312 0.219-0.531t0.531-0.219h1.5q0.312 0 0.531 0.219t0.219 0.531v3.25h3.25q0.312 0 0.531 0.219t0.219 0.531z"/>
</svg>